<svg width="203" height="205" viewBox="0 0 203 205" fill="none" xmlns="http://www.w3.org/2000/svg">
<path d="M118.387 33.1612H82.6493L64.7804 64.1274L82.6493 95.0935H118.387L136.252 64.1274L118.387 33.1612Z" fill="#0E0E0E"/>
<g filter="url(#filter0_d_30_5521)">
<path d="M97.507 0.100967C73.8999 1.24385 53.6473 15.0849 43.4216 34.952H43.4352H117.62L97.507 0.100967Z" fill="#322BF0"/>
</g>
<path d="M43.4108 35.0193C32.5937 56.0473 34.4492 80.5176 46.5304 99.3141V99.3005L83.6271 35.0193H43.4108Z" fill="#2B63F0"/>
<path d="M46.5792 99.3498C59.3736 119.235 81.4773 129.864 103.789 128.794V128.78L66.6874 64.4942L46.5792 99.3453V99.3498Z" fill="#2BA1F0"/>
<path d="M103.85 128.77C127.462 127.627 147.71 113.786 157.94 93.919H157.927H83.7422L103.85 128.77Z" fill="#2AE3F0"/>
<path d="M157.949 93.855C168.766 72.8224 166.91 48.3567 154.829 29.5602V29.5737L117.728 93.8595H157.949V93.855Z" fill="#B72AF0"/>
<path d="M154.774 29.522C141.98 9.63233 119.876 -0.996892 97.5693 0.07371V0.087262L134.671 64.3731L154.779 29.522H154.774Z" fill="#722BF0"/>
<path d="M154.774 29.5217L100.594 63.7403L133.289 8.87312C141.686 13.666 149.605 21.0202 154.774 29.5172" fill="#EAEAEA"/>
<path d="M34.1151 161.533V162.862C39.7459 162.862 44.0484 164.503 47.226 167.886C50.2956 171.269 51.8336 176.394 51.8336 183.364C51.8336 191.255 49.8889 196.788 45.8914 200.069C41.8939 203.35 35.4433 204.991 26.4316 204.991C18.1316 204.991 10.6578 204.17 3.99747 202.53C2.25613 202.116 1.23293 200.686 1.4363 198.841L2.97428 181.825C3.17765 179.981 4.71561 178.543 6.55864 178.543H17.5215V177.208C12.3991 177.208 8.19831 175.567 4.91899 172.388C1.63967 169.208 0 164.395 0 157.73C0 149.839 2.04641 144.306 6.24724 141.025C10.4481 137.846 17.4134 136.205 27.3467 136.205C34.1087 136.205 40.661 136.924 47.0163 138.354C48.8593 138.768 49.8825 140.3 49.6791 142.043L48.2428 158.239C48.0395 160.083 46.5015 161.52 44.6585 161.52H34.1087L34.1151 161.533Z" fill="#EAEAEA"/>
<path d="M59.1109 153.842C63.0003 149.639 69.7623 147.489 79.4923 147.489C84.9197 147.489 89.3238 148.31 92.8065 150.052C96.1875 151.794 98.647 154.153 99.9753 157.327C101.304 160.506 101.92 163.991 101.92 167.781C101.818 170.96 101.405 174.547 100.484 178.337C100.077 179.876 98.6407 180.9 97.1027 180.9H78.7677V182.229H96.4862C98.3293 182.229 99.8672 183.666 100.071 185.51L101.195 199.144C101.297 200.886 100.376 202.425 98.6343 202.832C92.2854 204.269 85.2183 204.981 77.3251 204.981C68.8218 204.981 62.7779 202.832 58.9901 198.629C55.2024 194.425 53.2513 187.049 53.2513 176.493C53.2513 165.937 55.1961 158.147 59.0918 153.842H59.1109ZM78.164 171.577H79.6003V164.201H78.164V171.577Z" fill="#EAEAEA"/>
<path d="M108.584 153.842C112.473 149.639 119.235 147.489 128.965 147.489C134.392 147.489 138.797 148.31 142.279 150.052C145.66 151.794 148.12 154.153 149.448 157.327C150.776 160.506 151.393 163.991 151.393 167.781C151.291 170.96 150.878 174.547 149.957 178.337C149.55 179.876 148.114 180.9 146.576 180.9H128.241V182.229H145.959C147.802 182.229 149.34 183.666 149.543 185.51L150.668 199.144C150.77 200.886 149.848 202.425 148.107 202.832C141.758 204.269 134.691 204.981 126.798 204.981C118.295 204.981 112.251 202.832 108.463 198.629C104.675 194.425 102.724 187.049 102.724 176.493C102.724 165.937 104.669 158.147 108.565 153.842H108.584ZM127.637 171.577H129.073V164.201H127.637V171.577Z" fill="#EAEAEA"/>
<path d="M152.839 141.028C152.839 139.083 154.275 137.544 156.22 137.442L178.654 136.005C180.91 135.903 182.652 137.442 182.652 139.693V148.405C182.652 148.812 182.652 149.225 182.448 149.53L174.765 166.134H176.303L183.268 150.968C183.783 149.842 184.908 149.022 186.134 149.022H198.527C200.573 149.022 202.213 150.662 202.213 152.71V168.697C202.213 169.415 201.908 170.134 201.393 170.744L196.373 175.87L201.393 181.3C201.908 181.815 202.213 182.527 202.213 183.246V199.748C202.213 201.795 200.573 203.436 198.527 203.436H184.901C183.465 203.436 182.238 202.717 181.724 201.287L176.398 186.324H174.86L179.061 197.904C180.084 200.873 178.241 203.436 175.171 203.436H156.531C154.485 203.436 152.845 201.795 152.845 199.748V141.016L152.839 141.028Z" fill="#EAEAEA"/>
<defs>
<filter id="filter0_d_30_5521" x="43.4216" y="0.100967" width="93.1917" height="50.3913" filterUnits="userSpaceOnUse" color-interpolation-filters="sRGB">
<feFlood flood-opacity="0" result="BackgroundImageFix"/>
<feColorMatrix in="SourceAlpha" type="matrix" values="0 0 0 0 0 0 0 0 0 0 0 0 0 0 0 0 0 0 127 0" result="hardAlpha"/>
<feOffset dx="12.0869" dy="8.63348"/>
<feGaussianBlur stdDeviation="3.45339"/>
<feColorMatrix type="matrix" values="0 0 0 0 0 0 0 0 0 0 0 0 0 0 0 0 0 0 0.43 0"/>
<feBlend mode="normal" in2="BackgroundImageFix" result="effect1_dropShadow_30_5521"/>
<feBlend mode="normal" in="SourceGraphic" in2="effect1_dropShadow_30_5521" result="shape"/>
</filter>
</defs>
</svg>
