<svg width="59" height="59" viewBox="0 0 59 59" fill="none" xmlns="http://www.w3.org/2000/svg">
<path d="M17.2083 41.7917H22.125V29.5H17.2083V41.7917ZM36.875 41.7917H41.7917V17.2083H36.875V41.7917ZM27.0417 41.7917H31.9583V34.4167H27.0417V41.7917ZM27.0417 29.5H31.9583V24.5833H27.0417V29.5ZM12.2917 51.625C10.9396 51.625 9.78212 51.1436 8.81927 50.1807C7.85642 49.2179 7.375 48.0604 7.375 46.7083V12.2917C7.375 10.9396 7.85642 9.78212 8.81927 8.81927C9.78212 7.85642 10.9396 7.375 12.2917 7.375H46.7083C48.0604 7.375 49.2179 7.85642 50.1807 8.81927C51.1436 9.78212 51.625 10.9396 51.625 12.2917V46.7083C51.625 48.0604 51.1436 49.2179 50.1807 50.1807C49.2179 51.1436 48.0604 51.625 46.7083 51.625H12.2917ZM12.2917 46.7083H46.7083V12.2917H12.2917V46.7083Z" fill="white"/>
</svg>
