<svg width="60" height="60" viewBox="0 0 60 60" fill="none" xmlns="http://www.w3.org/2000/svg">
<path d="M35 55V47.3125L48.8125 33.5625C49.1875 33.1875 49.6042 32.9167 50.0625 32.75C50.5208 32.5833 50.9792 32.5 51.4375 32.5C51.9375 32.5 52.4167 32.5938 52.875 32.7812C53.3333 32.9688 53.75 33.25 54.125 33.625L56.4375 35.9375C56.7708 36.3125 57.0312 36.7292 57.2188 37.1875C57.4062 37.6458 57.5 38.1042 57.5 38.5625C57.5 39.0208 57.4167 39.4896 57.25 39.9688C57.0833 40.4479 56.8125 40.875 56.4375 41.25L42.6875 55H35ZM38.75 51.25H41.125L48.6875 43.625L47.5625 42.4375L46.375 41.3125L38.75 48.875V51.25ZM15 55C13.625 55 12.4479 54.5104 11.4688 53.5312C10.4896 52.5521 10 51.375 10 50V10C10 8.625 10.4896 7.44792 11.4688 6.46875C12.4479 5.48958 13.625 5 15 5H35L50 20V27.5H45V22.5H32.5V10H15V50H30V55H15ZM47.5625 42.4375L46.375 41.3125L48.6875 43.625L47.5625 42.4375Z" fill="white"/>
</svg>
