<svg width="78" height="76" viewBox="0 0 78 76" fill="none" xmlns="http://www.w3.org/2000/svg">
<path d="M36.1377 41.2061C35.4338 41.927 35 42.9128 35 44V63.333H12.667V54.4668C12.667 52.6724 13.1282 51.0227 14.0518 49.5186C14.9754 48.0144 16.2029 46.8669 17.7334 46.0752C21.0055 44.4391 24.3303 43.2116 27.708 42.3936C30.4822 41.7217 33.2922 41.326 36.1377 41.2061ZM38 12.667C41.4833 12.667 44.4657 13.9071 46.9463 16.3877C49.4265 18.8681 50.6669 21.85 50.667 25.333C50.667 28.8163 49.4267 31.7988 46.9463 34.2793C44.4657 36.7598 41.4833 38 38 38C34.5167 38 31.5343 36.7599 29.0537 34.2793C26.5732 31.7988 25.333 28.8163 25.333 25.333C25.3331 21.85 26.5735 18.8681 29.0537 16.3877C31.5343 13.9071 34.5167 12.667 38 12.667Z" fill="white"/>
<path d="M43.482 69.3338C42.5183 69.3338 41.6933 68.9906 41.007 68.3043C40.3207 67.618 39.9775 66.793 39.9775 65.8293V46.5546C39.9775 45.5909 40.3207 44.7659 41.007 44.0796C41.6933 43.3933 42.5183 43.0501 43.482 43.0501H50.491V39.5456C50.491 38.5819 50.8342 37.7569 51.5204 37.0706C52.2067 36.3843 53.0318 36.0411 53.9955 36.0411H61.0045C61.9682 36.0411 62.7932 36.3843 63.4795 37.0706C64.1658 37.7569 64.509 38.5819 64.509 39.5456V43.0501H71.5179C72.4817 43.0501 73.3067 43.3933 73.993 44.0796C74.6793 44.7659 75.0224 45.5909 75.0224 46.5546V65.8293C75.0224 66.793 74.6793 67.618 73.993 68.3043C73.3067 68.9906 72.4817 69.3338 71.5179 69.3338H43.482ZM43.482 65.8293H71.5179V46.5546H43.482V65.8293ZM53.9955 43.0501H61.0045V39.5456H53.9955V43.0501Z" fill="white"/>
<path d="M43.482 65.8293H71.5179V46.5546H43.482V65.8293Z" fill="white"/>
<path d="M43.482 69.3338C42.5183 69.3338 41.6933 68.9906 41.007 68.3043C40.3207 67.618 39.9775 66.793 39.9775 65.8293V46.5546C39.9775 45.5909 40.3207 44.7659 41.007 44.0796C41.6933 43.3933 42.5183 43.0501 43.482 43.0501H50.491V39.5456C50.491 38.5819 50.8342 37.7569 51.5204 37.0706C52.2067 36.3843 53.0318 36.0411 53.9955 36.0411H61.0045C61.9682 36.0411 62.7932 36.3843 63.4795 37.0706C64.1658 37.7569 64.509 38.5819 64.509 39.5456V43.0501H71.5179C72.4817 43.0501 73.3067 43.3933 73.993 44.0796C74.6793 44.7659 75.0224 45.5909 75.0224 46.5546V65.8293C75.0224 66.793 74.6793 67.618 73.993 68.3043C73.3067 68.9906 72.4817 69.3338 71.5179 69.3338H43.482ZM43.482 65.8293H71.5179V46.5546H43.482V65.8293ZM53.9955 43.0501H61.0045V39.5456H53.9955V43.0501Z" stroke="white" stroke-width="2"/>
<path d="M43.482 65.8293H71.5179V46.5546H43.482V65.8293Z" stroke="white" stroke-width="2"/>
</svg>
