<svg width="23" height="23" viewBox="0 0 20 23" fill="none" xmlns="http://www.w3.org/2000/svg">
<path d="M1.06396 3.28613H14.3981" stroke="white" stroke-width="2.12819" stroke-linecap="round"/>
<path d="M1.06396 11.0642H7.73104" stroke="white" stroke-width="2.12819" stroke-linecap="round"/>
<path d="M12.1758 11.0642H18.8429" stroke="white" stroke-width="2.12819" stroke-linecap="round"/>
<path d="M5.50977 18.8413H18.8439" stroke="white" stroke-width="2.12819" stroke-linecap="round"/>
<path d="M16.6203 5.5085C17.8477 5.5085 18.8427 4.51361 18.8427 3.28635C18.8427 2.0591 17.8477 1.06421 16.6203 1.06421C15.3929 1.06421 14.3979 2.0591 14.3979 3.28635C14.3979 4.51361 15.3929 5.5085 16.6203 5.5085Z" stroke="white" stroke-width="2.12819" stroke-linecap="round"/>
<path d="M9.95429 13.2866C11.1817 13.2866 12.1766 12.2917 12.1766 11.0644C12.1766 9.83717 11.1817 8.84229 9.95429 8.84229C8.72692 8.84229 7.73193 9.83717 7.73193 11.0644C7.73193 12.2917 8.72692 13.2866 9.95429 13.2866Z" stroke="white" stroke-width="2.12819" stroke-linecap="round"/>
<path d="M3.28632 21.0642C4.5137 21.0642 5.50868 20.0693 5.50868 18.842C5.50868 17.6148 4.5137 16.6199 3.28632 16.6199C2.05895 16.6199 1.06396 17.6148 1.06396 18.842C1.06396 20.0693 2.05895 21.0642 3.28632 21.0642Z" stroke="white" stroke-width="2.12819" stroke-linecap="round"/>
</svg>
