<svg width="60" height="60" viewBox="0 0 60 60" fill="none" xmlns="http://www.w3.org/2000/svg">
<path d="M10 47.5V42.5H15V25C15 21.5417 16.0417 18.4688 18.125 15.7812C20.2083 13.0938 22.9167 11.3333 26.25 10.5V8.75C26.25 7.70833 26.6146 6.82292 27.3438 6.09375C28.0729 5.36458 28.9583 5 30 5C31.0417 5 31.9271 5.36458 32.6562 6.09375C33.3854 6.82292 33.75 7.70833 33.75 8.75V10.5C37.0833 11.3333 39.7917 13.0938 41.875 15.7812C43.9583 18.4688 45 21.5417 45 25V42.5H50V47.5H10ZM30 55C28.625 55 27.4479 54.5104 26.4688 53.5312C25.4896 52.5521 25 51.375 25 50H35C35 51.375 34.5104 52.5521 33.5312 53.5312C32.5521 54.5104 31.375 55 30 55ZM20 42.5H40V25C40 22.25 39.0208 19.8958 37.0625 17.9375C35.1042 15.9792 32.75 15 30 15C27.25 15 24.8958 15.9792 22.9375 17.9375C20.9792 19.8958 20 22.25 20 25V42.5Z" fill="white"/>
</svg>
