<svg width="26" height="26" viewBox="0 0 26 26" fill="none" xmlns="http://www.w3.org/2000/svg">
<path d="M12.8164 0C13.7721 0 14.5467 0.774841 14.5469 1.73047V11.0039H23.8203C24.776 11.0039 25.5507 11.7787 25.5508 12.7344C25.5508 13.6902 24.7761 14.4648 23.8203 14.4648H14.5469V23.8203C14.5469 24.7761 13.7722 25.5508 12.8164 25.5508C11.8607 25.5507 11.0859 24.7761 11.0859 23.8203V14.4648H1.73047C0.774658 14.4648 -4.17798e-08 13.6902 0 12.7344C0.00012159 11.7787 0.774733 11.0039 1.73047 11.0039H11.0859V1.73047C11.0862 0.774897 11.8608 9.2196e-05 12.8164 0Z" fill="#E3E3E3"/>
</svg>
