<svg width="60" height="60" viewBox="0 0 60 60" fill="none" xmlns="http://www.w3.org/2000/svg">
<path d="M30 52.5C26.875 52.5 23.9479 51.9062 21.2188 50.7188C18.4896 49.5312 16.1146 47.9271 14.0938 45.9062C12.0729 43.8854 10.4688 41.5104 9.28125 38.7812C8.09375 36.0521 7.5 33.125 7.5 30C7.5 26.875 8.09375 23.9479 9.28125 21.2188C10.4688 18.4896 12.0729 16.1146 14.0938 14.0938C16.1146 12.0729 18.4896 10.4688 21.2188 9.28125C23.9479 8.09375 26.875 7.5 30 7.5C33.4167 7.5 36.6562 8.22917 39.7188 9.6875C42.7812 11.1458 45.375 13.2083 47.5 15.875V10H52.5V25H37.5V20H44.375C42.6667 17.6667 40.5625 15.8333 38.0625 14.5C35.5625 13.1667 32.875 12.5 30 12.5C25.125 12.5 20.9896 14.1979 17.5938 17.5938C14.1979 20.9896 12.5 25.125 12.5 30C12.5 34.875 14.1979 39.0104 17.5938 42.4062C20.9896 45.8021 25.125 47.5 30 47.5C34.375 47.5 38.1979 46.0833 41.4688 43.25C44.7396 40.4167 46.6667 36.8333 47.25 32.5H52.375C51.75 38.2083 49.3021 42.9688 45.0312 46.7812C40.7604 50.5938 35.75 52.5 30 52.5ZM37 40.5L27.5 31V17.5H32.5V29L40.5 37L37 40.5Z" fill="white"/>
</svg>
